<mxfile host="app.diagrams.net" modified="2022-12-10T15:29:13.386Z" agent="5.0 (Windows NT 10.0; Win64; x64) AppleWebKit/537.36 (KHTML, like Gecko) Chrome/108.0.0.0 Safari/537.36" etag="rcmpQnn5h7ar4s9jmrAD" version="20.6.2" type="github">
  <diagram id="IC9cS1UcrK66ufTz8bY1" name="Page-1">
    <mxGraphModel dx="886" dy="441" grid="1" gridSize="10" guides="1" tooltips="1" connect="1" arrows="1" fold="1" page="1" pageScale="1" pageWidth="827" pageHeight="1169" math="0" shadow="0">
      <root>
        <mxCell id="0" />
        <mxCell id="1" parent="0" />
        <mxCell id="3HWLPhLwLd42-ci-Btue-1" value="" style="rounded=0;whiteSpace=wrap;html=1;" parent="1" vertex="1">
          <mxGeometry x="161" y="420" width="110" height="40" as="geometry" />
        </mxCell>
        <mxCell id="3HWLPhLwLd42-ci-Btue-45" style="edgeStyle=none;rounded=0;orthogonalLoop=1;jettySize=auto;html=1;exitX=0.5;exitY=1;exitDx=0;exitDy=0;fontSize=14;endArrow=none;endFill=0;entryX=0.5;entryY=0;entryDx=0;entryDy=0;" parent="1" source="3HWLPhLwLd42-ci-Btue-6" target="dDGIGkVW771tPzU_ZGE0-1" edge="1">
          <mxGeometry relative="1" as="geometry">
            <mxPoint x="335" y="420" as="targetPoint" />
          </mxGeometry>
        </mxCell>
        <mxCell id="3HWLPhLwLd42-ci-Btue-6" value="" style="shape=ellipse;fillColor=#000000;strokeColor=none;html=1;sketch=0;" parent="1" vertex="1">
          <mxGeometry x="280" y="323" width="10" height="10" as="geometry" />
        </mxCell>
        <mxCell id="3HWLPhLwLd42-ci-Btue-11" value="" style="shape=ellipse;fillColor=#000000;strokeColor=none;html=1;sketch=0;" parent="1" vertex="1">
          <mxGeometry x="320" y="323" width="10" height="10" as="geometry" />
        </mxCell>
        <mxCell id="3HWLPhLwLd42-ci-Btue-46" style="edgeStyle=none;rounded=0;orthogonalLoop=1;jettySize=auto;html=1;entryX=0.5;entryY=0;entryDx=0;entryDy=0;fontSize=14;endArrow=none;endFill=0;exitX=0.5;exitY=1;exitDx=0;exitDy=0;" parent="1" source="3HWLPhLwLd42-ci-Btue-12" target="dDGIGkVW771tPzU_ZGE0-3" edge="1">
          <mxGeometry relative="1" as="geometry">
            <mxPoint x="350" y="330" as="sourcePoint" />
          </mxGeometry>
        </mxCell>
        <mxCell id="3HWLPhLwLd42-ci-Btue-12" value="" style="shape=ellipse;fillColor=#000000;strokeColor=none;html=1;sketch=0;" parent="1" vertex="1">
          <mxGeometry x="360" y="323" width="10" height="10" as="geometry" />
        </mxCell>
        <mxCell id="3HWLPhLwLd42-ci-Btue-13" value="" style="shape=ellipse;fillColor=#000000;strokeColor=none;html=1;sketch=0;" parent="1" vertex="1">
          <mxGeometry x="400" y="323" width="10" height="10" as="geometry" />
        </mxCell>
        <mxCell id="3HWLPhLwLd42-ci-Btue-16" value="&lt;font style=&quot;font-size: 14px;&quot;&gt;z&lt;sub style=&quot;&quot;&gt;1&lt;/sub&gt;&lt;/font&gt;" style="text;html=1;strokeColor=none;fillColor=none;align=center;verticalAlign=middle;whiteSpace=wrap;rounded=0;shadow=1;" parent="1" vertex="1">
          <mxGeometry x="255" y="293" width="55" height="30" as="geometry" />
        </mxCell>
        <mxCell id="3HWLPhLwLd42-ci-Btue-20" value="&lt;font style=&quot;font-size: 14px;&quot;&gt;z&lt;/font&gt;&lt;font style=&quot;font-size: 11.6667px;&quot;&gt;&lt;sub&gt;2&lt;/sub&gt;&lt;/font&gt;" style="text;html=1;strokeColor=none;fillColor=none;align=center;verticalAlign=middle;whiteSpace=wrap;rounded=0;shadow=1;" parent="1" vertex="1">
          <mxGeometry x="295" y="293" width="60" height="30" as="geometry" />
        </mxCell>
        <mxCell id="3HWLPhLwLd42-ci-Btue-21" value="&lt;font style=&quot;font-size: 14px;&quot;&gt;z&lt;/font&gt;&lt;font size=&quot;1&quot; style=&quot;&quot;&gt;&lt;sub&gt;3&lt;/sub&gt;&lt;/font&gt;" style="text;html=1;strokeColor=none;fillColor=none;align=center;verticalAlign=middle;whiteSpace=wrap;rounded=0;shadow=1;" parent="1" vertex="1">
          <mxGeometry x="340" y="293" width="50" height="30" as="geometry" />
        </mxCell>
        <mxCell id="3HWLPhLwLd42-ci-Btue-22" value="&lt;font style=&quot;font-size: 14px;&quot;&gt;z&lt;/font&gt;&lt;font style=&quot;font-size: 11.6667px;&quot;&gt;&lt;sub&gt;4&lt;/sub&gt;&lt;/font&gt;" style="text;html=1;strokeColor=none;fillColor=none;align=center;verticalAlign=middle;whiteSpace=wrap;rounded=0;shadow=1;" parent="1" vertex="1">
          <mxGeometry x="375" y="293" width="60" height="30" as="geometry" />
        </mxCell>
        <mxCell id="3HWLPhLwLd42-ci-Btue-26" value="" style="rounded=0;whiteSpace=wrap;html=1;" parent="1" vertex="1">
          <mxGeometry x="423" y="420" width="110" height="40" as="geometry" />
        </mxCell>
        <mxCell id="3HWLPhLwLd42-ci-Btue-31" value="&lt;span style=&quot;font-size: 14px;&quot;&gt;Node 1&lt;/span&gt;" style="text;html=1;strokeColor=none;fillColor=none;align=center;verticalAlign=middle;whiteSpace=wrap;rounded=0;shadow=1;" parent="1" vertex="1">
          <mxGeometry x="186" y="430" width="60" height="30" as="geometry" />
        </mxCell>
        <mxCell id="3HWLPhLwLd42-ci-Btue-33" value="&lt;span style=&quot;font-size: 14px;&quot;&gt;Node P&lt;/span&gt;" style="text;html=1;strokeColor=none;fillColor=none;align=center;verticalAlign=middle;whiteSpace=wrap;rounded=0;shadow=1;" parent="1" vertex="1">
          <mxGeometry x="448" y="430" width="60" height="30" as="geometry" />
        </mxCell>
        <mxCell id="3HWLPhLwLd42-ci-Btue-38" value="" style="shape=ellipse;fillColor=#000000;strokeColor=none;html=1;sketch=0;" parent="1" vertex="1">
          <mxGeometry x="176" y="415" width="10" height="10" as="geometry" />
        </mxCell>
        <mxCell id="3HWLPhLwLd42-ci-Btue-39" value="" style="shape=ellipse;fillColor=#000000;strokeColor=none;html=1;sketch=0;" parent="1" vertex="1">
          <mxGeometry x="199" y="415" width="10" height="10" as="geometry" />
        </mxCell>
        <mxCell id="3HWLPhLwLd42-ci-Btue-47" style="edgeStyle=none;rounded=0;orthogonalLoop=1;jettySize=auto;html=1;exitX=0.5;exitY=0;exitDx=0;exitDy=0;entryX=0.5;entryY=1;entryDx=0;entryDy=0;fontSize=14;endArrow=none;endFill=0;" parent="1" source="dDGIGkVW771tPzU_ZGE0-4" target="3HWLPhLwLd42-ci-Btue-13" edge="1">
          <mxGeometry relative="1" as="geometry" />
        </mxCell>
        <mxCell id="3HWLPhLwLd42-ci-Btue-40" value="" style="shape=ellipse;fillColor=#000000;strokeColor=none;html=1;sketch=0;" parent="1" vertex="1">
          <mxGeometry x="223" y="415" width="10" height="10" as="geometry" />
        </mxCell>
        <mxCell id="3HWLPhLwLd42-ci-Btue-41" value="" style="shape=ellipse;fillColor=#000000;strokeColor=none;html=1;sketch=0;" parent="1" vertex="1">
          <mxGeometry x="246" y="415" width="10" height="10" as="geometry" />
        </mxCell>
        <mxCell id="3HWLPhLwLd42-ci-Btue-54" value="" style="ellipse;whiteSpace=wrap;html=1;shadow=0;dashed=1;fontSize=14;fillColor=none;strokeColor=#6c8ebf;" parent="1" vertex="1">
          <mxGeometry x="171" y="405" width="90" height="30" as="geometry" />
        </mxCell>
        <mxCell id="3HWLPhLwLd42-ci-Btue-58" value="" style="ellipse;whiteSpace=wrap;html=1;shadow=0;dashed=1;fontSize=14;fillColor=none;strokeColor=#6c8ebf;" parent="1" vertex="1">
          <mxGeometry x="433" y="405" width="90" height="30" as="geometry" />
        </mxCell>
        <mxCell id="3HWLPhLwLd42-ci-Btue-62" value="&lt;font style=&quot;font-size: 14px;&quot;&gt;x&lt;sub style=&quot;&quot;&gt;&lt;font style=&quot;&quot;&gt;1&lt;/font&gt;&lt;/sub&gt;&lt;/font&gt;" style="text;html=1;strokeColor=none;fillColor=none;align=center;verticalAlign=middle;whiteSpace=wrap;rounded=0;shadow=1;" parent="1" vertex="1">
          <mxGeometry x="116" y="395" width="55" height="30" as="geometry" />
        </mxCell>
        <mxCell id="3HWLPhLwLd42-ci-Btue-64" value="&lt;font style=&quot;font-size: 14px;&quot;&gt;x&lt;sub style=&quot;&quot;&gt;p&lt;/sub&gt;&lt;/font&gt;" style="text;html=1;strokeColor=none;fillColor=none;align=center;verticalAlign=middle;whiteSpace=wrap;rounded=0;shadow=1;" parent="1" vertex="1">
          <mxGeometry x="517" y="390" width="55" height="30" as="geometry" />
        </mxCell>
        <mxCell id="dDGIGkVW771tPzU_ZGE0-1" value="" style="shape=ellipse;fillColor=#000000;strokeColor=none;html=1;sketch=0;" parent="1" vertex="1">
          <mxGeometry x="437" y="415" width="10" height="10" as="geometry" />
        </mxCell>
        <mxCell id="dDGIGkVW771tPzU_ZGE0-2" value="" style="shape=ellipse;fillColor=#000000;strokeColor=none;html=1;sketch=0;" parent="1" vertex="1">
          <mxGeometry x="460" y="415" width="10" height="10" as="geometry" />
        </mxCell>
        <mxCell id="dDGIGkVW771tPzU_ZGE0-3" value="" style="shape=ellipse;fillColor=#000000;strokeColor=none;html=1;sketch=0;" parent="1" vertex="1">
          <mxGeometry x="484" y="415" width="10" height="10" as="geometry" />
        </mxCell>
        <mxCell id="dDGIGkVW771tPzU_ZGE0-4" value="" style="shape=ellipse;fillColor=#000000;strokeColor=none;html=1;sketch=0;" parent="1" vertex="1">
          <mxGeometry x="507" y="415" width="10" height="10" as="geometry" />
        </mxCell>
        <mxCell id="dDGIGkVW771tPzU_ZGE0-7" style="edgeStyle=none;rounded=0;orthogonalLoop=1;jettySize=auto;html=1;entryX=0.5;entryY=0;entryDx=0;entryDy=0;fontSize=14;endArrow=none;endFill=0;exitX=0.5;exitY=1;exitDx=0;exitDy=0;" parent="1" source="3HWLPhLwLd42-ci-Btue-11" target="dDGIGkVW771tPzU_ZGE0-2" edge="1">
          <mxGeometry relative="1" as="geometry">
            <mxPoint x="305" y="325" as="sourcePoint" />
            <mxPoint x="531" y="425" as="targetPoint" />
          </mxGeometry>
        </mxCell>
        <mxCell id="dDGIGkVW771tPzU_ZGE0-21" style="edgeStyle=none;rounded=0;orthogonalLoop=1;jettySize=auto;html=1;exitX=0.5;exitY=1;exitDx=0;exitDy=0;fontSize=14;endArrow=none;endFill=0;entryX=0.5;entryY=0;entryDx=0;entryDy=0;" parent="1" source="3HWLPhLwLd42-ci-Btue-6" target="3HWLPhLwLd42-ci-Btue-38" edge="1">
          <mxGeometry relative="1" as="geometry">
            <mxPoint x="484" y="425" as="targetPoint" />
            <mxPoint x="295" y="343" as="sourcePoint" />
          </mxGeometry>
        </mxCell>
        <mxCell id="dDGIGkVW771tPzU_ZGE0-22" style="edgeStyle=none;rounded=0;orthogonalLoop=1;jettySize=auto;html=1;entryX=0.5;entryY=0;entryDx=0;entryDy=0;fontSize=14;endArrow=none;endFill=0;exitX=0.5;exitY=1;exitDx=0;exitDy=0;" parent="1" source="3HWLPhLwLd42-ci-Btue-11" target="3HWLPhLwLd42-ci-Btue-39" edge="1">
          <mxGeometry relative="1" as="geometry">
            <mxPoint x="335" y="343" as="sourcePoint" />
            <mxPoint x="507" y="425" as="targetPoint" />
          </mxGeometry>
        </mxCell>
        <mxCell id="dDGIGkVW771tPzU_ZGE0-23" style="edgeStyle=none;rounded=0;orthogonalLoop=1;jettySize=auto;html=1;entryX=0.5;entryY=0;entryDx=0;entryDy=0;fontSize=14;endArrow=none;endFill=0;exitX=0.5;exitY=1;exitDx=0;exitDy=0;" parent="1" source="3HWLPhLwLd42-ci-Btue-12" target="3HWLPhLwLd42-ci-Btue-40" edge="1">
          <mxGeometry relative="1" as="geometry">
            <mxPoint x="295" y="378" as="sourcePoint" />
            <mxPoint x="451" y="460" as="targetPoint" />
          </mxGeometry>
        </mxCell>
        <mxCell id="dDGIGkVW771tPzU_ZGE0-24" style="edgeStyle=none;rounded=0;orthogonalLoop=1;jettySize=auto;html=1;exitX=0.5;exitY=0;exitDx=0;exitDy=0;entryX=0.5;entryY=1;entryDx=0;entryDy=0;fontSize=14;endArrow=none;endFill=0;" parent="1" source="3HWLPhLwLd42-ci-Btue-41" target="3HWLPhLwLd42-ci-Btue-13" edge="1">
          <mxGeometry relative="1" as="geometry">
            <mxPoint x="379" y="452" as="sourcePoint" />
            <mxPoint x="240" y="370" as="targetPoint" />
          </mxGeometry>
        </mxCell>
        <mxCell id="dDGIGkVW771tPzU_ZGE0-29" value="" style="shape=flexArrow;endArrow=classic;html=1;rounded=0;fontSize=9;width=8;endSize=4.514285714285714;endWidth=7.428571428571429;" parent="1" edge="1">
          <mxGeometry width="50" height="50" relative="1" as="geometry">
            <mxPoint x="286" y="429.43" as="sourcePoint" />
            <mxPoint x="326" y="429.43" as="targetPoint" />
            <Array as="points">
              <mxPoint x="346" y="429.43" />
            </Array>
          </mxGeometry>
        </mxCell>
        <mxCell id="dDGIGkVW771tPzU_ZGE0-30" value="" style="shape=flexArrow;endArrow=classic;html=1;rounded=0;fontSize=9;width=8;endSize=4.514285714285714;endWidth=7.428571428571429;" parent="1" edge="1">
          <mxGeometry width="50" height="50" relative="1" as="geometry">
            <mxPoint x="326" y="450" as="sourcePoint" />
            <mxPoint x="286" y="450.00000000000006" as="targetPoint" />
            <Array as="points">
              <mxPoint x="306" y="450" />
            </Array>
          </mxGeometry>
        </mxCell>
        <mxCell id="dDGIGkVW771tPzU_ZGE0-31" value="" style="shape=flexArrow;endArrow=classic;html=1;rounded=0;fontSize=9;width=8;endSize=4.514285714285714;endWidth=7.428571428571429;" parent="1" edge="1">
          <mxGeometry width="50" height="50" relative="1" as="geometry">
            <mxPoint x="373" y="429.43000000000006" as="sourcePoint" />
            <mxPoint x="413" y="429.43000000000006" as="targetPoint" />
            <Array as="points">
              <mxPoint x="433" y="429.43" />
            </Array>
          </mxGeometry>
        </mxCell>
        <mxCell id="dDGIGkVW771tPzU_ZGE0-32" value="" style="shape=flexArrow;endArrow=classic;html=1;rounded=0;fontSize=9;width=8;endSize=4.514285714285714;endWidth=7.428571428571429;" parent="1" edge="1">
          <mxGeometry width="50" height="50" relative="1" as="geometry">
            <mxPoint x="413" y="450" as="sourcePoint" />
            <mxPoint x="373" y="450" as="targetPoint" />
            <Array as="points">
              <mxPoint x="393" y="450" />
            </Array>
          </mxGeometry>
        </mxCell>
        <mxCell id="dDGIGkVW771tPzU_ZGE0-33" value="&lt;b&gt;&lt;font style=&quot;font-size: 24px;&quot;&gt;...&lt;/font&gt;&lt;/b&gt;" style="text;html=1;strokeColor=none;fillColor=none;align=center;verticalAlign=middle;whiteSpace=wrap;rounded=0;fontSize=9;" parent="1" vertex="1">
          <mxGeometry x="320" y="415" width="60" height="30" as="geometry" />
        </mxCell>
      </root>
    </mxGraphModel>
  </diagram>
</mxfile>
